<svg xmlns="http://www.w3.org/2000/svg" xmlns:xlink="http://www.w3.org/1999/xlink" width="500" zoomAndPan="magnify" viewBox="0 0 375 374.999991" height="500" preserveAspectRatio="xMidYMid meet" version="1.0"><path fill="#ffffff" d="M 166.925781 302.082031 L 166.925781 261.199219 C 153.039062 257.898438 140.667969 251.824219 129.816406 242.96875 C 118.96875 234.113281 110.851562 223.351562 105.46875 210.675781 C 80.730469 211.457031 59.699219 203.265625 42.382812 186.097656 C 25.066406 168.929688 16.40625 147.785156 16.40625 122.65625 L 16.40625 105.988281 C 16.40625 94.40625 20.457031 84.566406 28.554688 76.46875 C 36.652344 68.371094 46.492188 64.324219 58.074219 64.324219 L 95.050781 64.324219 L 95.050781 57.03125 C 95.050781 50.214844 97.675781 44.214844 102.929688 39.03125 C 108.183594 33.84375 114.28125 31.25 121.222656 31.25 L 254.035156 31.25 C 260.804688 31.25 266.859375 33.84375 272.199219 39.03125 C 277.539062 44.214844 280.207031 50.214844 280.207031 57.03125 L 280.207031 64.324219 L 317.1875 64.324219 C 328.515625 64.324219 338.25 68.371094 346.386719 76.46875 C 354.523438 84.566406 358.59375 94.40625 358.59375 105.988281 L 358.59375 122.65625 C 358.59375 147.785156 349.933594 168.929688 332.617188 186.097656 C 315.300781 203.265625 294.269531 211.457031 269.53125 210.675781 C 264.148438 223.351562 256.03125 234.113281 245.183594 242.96875 C 234.332031 251.824219 222.046875 257.898438 208.332031 261.199219 L 208.332031 302.082031 L 243.488281 302.082031 C 249.515625 302.082031 254.492188 304.121094 258.425781 308.195312 C 262.359375 312.269531 264.324219 317.132812 264.324219 322.785156 C 264.324219 328.796875 262.359375 333.753906 258.425781 337.648438 C 254.492188 341.542969 249.46875 343.488281 243.347656 343.488281 L 131.652344 343.488281 C 125.609375 343.488281 120.644531 341.527344 116.761719 337.601562 C 112.878906 333.675781 110.9375 328.773438 110.9375 322.886719 C 110.9375 317.003906 112.878906 312.066406 116.761719 308.074219 C 120.644531 304.078125 125.5625 302.082031 131.511719 302.082031 Z M 95.050781 169.011719 L 95.050781 105.988281 L 58.074219 105.988281 L 58.074219 122.65625 C 58.074219 133.855469 61.546875 143.683594 68.488281 152.148438 C 75.433594 160.613281 84.289062 166.234375 95.050781 169.011719 Z M 187.5625 222.65625 C 201.367188 222.65625 213.316406 217.570312 223.40625 207.398438 C 233.496094 197.230469 238.542969 185.214844 238.542969 171.355469 L 238.542969 72.917969 L 136.457031 72.917969 L 136.457031 171.355469 C 136.457031 185.214844 141.523438 197.230469 151.65625 207.398438 C 161.789062 217.570312 173.757812 222.65625 187.5625 222.65625 Z M 280.207031 169.011719 C 290.796875 166.234375 299.609375 160.613281 306.640625 152.148438 C 313.671875 143.683594 317.1875 133.855469 317.1875 122.65625 L 317.1875 105.988281 L 280.207031 105.988281 Z M 187.5 147.65625 Z M 187.5 147.65625 " fill-opacity="1" fill-rule="nonzero"/></svg>