<svg xmlns="http://www.w3.org/2000/svg" xmlns:xlink="http://www.w3.org/1999/xlink" width="500" zoomAndPan="magnify" viewBox="0 0 375 374.999991" height="500" preserveAspectRatio="xMidYMid meet" version="1.0"><path fill="#ffffff" d="M 188.277344 264.214844 C 182.511719 264.214844 177.546875 262.136719 173.386719 257.976562 C 169.222656 253.8125 167.144531 248.851562 167.144531 243.085938 L 167.144531 131.914062 C 167.144531 126.148438 169.222656 121.1875 173.386719 117.023438 C 177.546875 112.863281 182.511719 110.785156 188.277344 110.785156 L 299.441406 110.785156 C 305.210938 110.785156 310.175781 112.863281 314.332031 117.023438 C 318.496094 121.1875 320.574219 126.148438 320.574219 131.914062 L 320.574219 243.085938 C 320.574219 248.851562 318.496094 253.8125 314.332031 257.976562 C 310.175781 262.136719 305.210938 264.214844 299.441406 264.214844 Z M 209.410156 223.894531 L 278.308594 223.894531 L 278.308594 151.105469 L 209.410156 151.105469 Z M 70.191406 324.96875 C 64.683594 324.96875 59.945312 323.003906 55.980469 319.078125 C 52.015625 315.148438 50.03125 310.339844 50.03125 304.660156 C 50.03125 298.921875 51.996094 294.125 55.921875 290.273438 C 59.851562 286.421875 64.660156 284.496094 70.339844 284.496094 L 304.808594 284.496094 C 310.316406 284.496094 315.054688 286.414062 319.019531 290.25 C 322.984375 294.085938 324.96875 298.863281 324.96875 304.578125 C 324.96875 310.289062 323.003906 315.117188 319.078125 319.058594 C 315.148438 323 310.339844 324.96875 304.660156 324.96875 Z M 70.191406 264.214844 C 64.683594 264.214844 59.945312 262.230469 55.980469 258.269531 C 52.015625 254.300781 50.03125 249.5625 50.03125 244.054688 C 50.03125 238.546875 52.015625 233.808594 55.980469 229.84375 C 59.945312 225.875 64.683594 223.894531 70.191406 223.894531 L 119.480469 223.894531 C 124.988281 223.894531 129.726562 225.875 133.691406 229.84375 C 137.660156 233.808594 139.644531 238.546875 139.644531 244.054688 C 139.644531 249.5625 137.660156 254.300781 133.691406 258.269531 C 129.726562 262.230469 124.988281 264.214844 119.480469 264.214844 Z M 70.191406 207.660156 C 64.683594 207.660156 59.945312 205.675781 55.980469 201.710938 C 52.015625 197.742188 50.03125 193.007812 50.03125 187.5 C 50.03125 181.992188 52.015625 177.257812 55.980469 173.289062 C 59.945312 169.324219 64.683594 167.339844 70.191406 167.339844 L 119.480469 167.339844 C 124.988281 167.339844 129.726562 169.324219 133.691406 173.289062 C 137.660156 177.257812 139.644531 181.992188 139.644531 187.5 C 139.644531 193.007812 137.660156 197.742188 133.691406 201.710938 C 129.726562 205.675781 124.988281 207.660156 119.480469 207.660156 Z M 70.191406 151.105469 C 64.683594 151.105469 59.945312 149.125 55.980469 145.15625 C 52.015625 141.191406 50.03125 136.453125 50.03125 130.945312 C 50.03125 125.4375 52.015625 120.699219 55.980469 116.730469 C 59.945312 112.765625 64.683594 110.785156 70.191406 110.785156 L 119.480469 110.785156 C 124.988281 110.785156 129.726562 112.765625 133.691406 116.730469 C 137.660156 120.699219 139.644531 125.4375 139.644531 130.945312 C 139.644531 136.453125 137.660156 141.191406 133.691406 145.15625 C 129.726562 149.125 124.988281 151.105469 119.480469 151.105469 Z M 70.191406 90.351562 C 64.683594 90.351562 59.945312 88.371094 55.980469 84.402344 C 52.015625 80.4375 50.03125 75.699219 50.03125 70.191406 C 50.03125 64.683594 52.015625 59.945312 55.980469 55.980469 C 59.945312 52.015625 64.683594 50.03125 70.191406 50.03125 L 304.808594 50.03125 C 310.316406 50.03125 315.054688 52.015625 319.019531 55.980469 C 322.984375 59.945312 324.96875 64.683594 324.96875 70.191406 C 324.96875 75.699219 322.984375 80.4375 319.019531 84.402344 C 315.054688 88.371094 310.316406 90.351562 304.808594 90.351562 Z M 70.191406 90.351562 " fill-opacity="1" fill-rule="nonzero"/></svg>