<svg xmlns="http://www.w3.org/2000/svg" xmlns:xlink="http://www.w3.org/1999/xlink" width="500" zoomAndPan="magnify" viewBox="0 0 375 374.999991" height="500" preserveAspectRatio="xMidYMid meet" version="1.0"><defs><clipPath id="870eda895d"><path d="M 53 11.945312 L 322 11.945312 L 322 352 L 53 352 Z M 53 11.945312 " clip-rule="nonzero"/></clipPath></defs><g clip-path="url(#870eda895d)"><path fill="#ffffff" d="M 103.378906 351.347656 C 89.730469 351.347656 78.027344 346.472656 68.273438 336.714844 C 58.519531 326.957031 53.640625 315.253906 53.640625 301.609375 L 53.640625 162.996094 C 53.640625 149.003906 58.519531 137.21875 68.273438 127.632812 C 78.027344 118.046875 89.730469 113.253906 103.378906 113.253906 L 104.84375 113.253906 L 104.84375 94.601562 C 104.84375 71.195312 112.914062 51.324219 129.050781 34.988281 C 145.191406 18.652344 164.671875 10.484375 187.5 10.484375 C 210.328125 10.484375 229.808594 18.652344 245.949219 34.988281 C 262.085938 51.324219 270.15625 71.195312 270.15625 94.601562 L 270.15625 113.253906 L 271.617188 113.253906 C 285.265625 113.253906 296.96875 118.046875 306.726562 127.632812 C 316.480469 137.21875 321.359375 149.003906 321.359375 162.996094 L 321.359375 301.609375 C 321.359375 315.253906 316.480469 326.957031 306.726562 336.714844 C 296.96875 346.472656 285.265625 351.347656 271.617188 351.347656 Z M 103.378906 301.609375 L 271.617188 301.609375 L 271.617188 162.996094 L 103.378906 162.996094 Z M 187.558594 263.9375 C 196.296875 263.9375 203.652344 260.871094 209.625 254.738281 C 215.601562 248.597656 218.585938 241.222656 218.585938 232.609375 C 218.585938 223.992188 215.582031 216.636719 209.566406 210.539062 C 203.554688 204.445312 196.179688 201.398438 187.441406 201.398438 C 178.703125 201.398438 171.347656 204.449219 165.371094 210.546875 C 159.398438 216.644531 156.414062 223.976562 156.414062 232.542969 C 156.414062 241.210938 159.417969 248.609375 165.429688 254.738281 C 171.445312 260.871094 178.820312 263.9375 187.558594 263.9375 Z M 154.582031 113.253906 L 220.414062 113.253906 L 220.414062 94.601562 C 220.414062 85.011719 217.230469 76.886719 210.863281 70.21875 C 204.492188 63.554688 196.691406 60.222656 187.457031 60.222656 C 178.21875 60.222656 170.433594 63.554688 164.09375 70.21875 C 157.753906 76.886719 154.582031 85.011719 154.582031 94.601562 Z M 103.378906 301.609375 L 103.378906 162.996094 Z M 103.378906 301.609375 " fill-opacity="1" fill-rule="nonzero"/></g></svg>