<svg xmlns="http://www.w3.org/2000/svg" xmlns:xlink="http://www.w3.org/1999/xlink" width="500" zoomAndPan="magnify" viewBox="0 0 375 374.999991" height="500" preserveAspectRatio="xMidYMid meet" version="1.0"><path fill="#ffffff" d="M 82.734375 330.234375 C 75.9375 330.234375 70.253906 327.949219 65.683594 323.378906 C 61.113281 318.808594 58.828125 313.125 58.828125 306.328125 L 58.828125 281.015625 C 58.828125 274.6875 60 268.652344 62.34375 262.910156 C 64.6875 257.167969 68.203125 251.953125 72.890625 247.265625 L 264.492188 56.015625 C 268.007812 52.5 271.875 49.746094 276.09375 47.753906 C 280.3125 45.761719 284.53125 44.765625 288.75 44.765625 C 293.203125 44.765625 297.597656 45.761719 301.933594 47.753906 C 306.269531 49.746094 310.3125 52.5 314.0625 56.015625 L 333.75 75 C 337.265625 78.28125 339.902344 82.089844 341.660156 86.425781 C 343.417969 90.761719 344.296875 95.15625 344.296875 99.609375 C 344.296875 103.828125 343.476562 108.105469 341.835938 112.441406 C 340.195312 116.777344 337.5 120.703125 333.75 124.21875 L 142.148438 316.171875 C 137.460938 320.859375 132.246094 324.375 126.503906 326.71875 C 120.761719 329.0625 114.726562 330.234375 108.398438 330.234375 Z M 96.09375 293.320312 L 112.617188 293.320312 L 254.648438 151.289062 L 246.210938 142.851562 L 238.125 134.414062 L 96.09375 276.796875 Z M 306.328125 99.960938 L 289.101562 82.734375 Z M 246.210938 142.851562 L 238.125 134.414062 L 254.648438 151.289062 Z M 215.976562 330.234375 C 234.492188 330.234375 251.601562 325.546875 267.304688 316.171875 C 283.007812 306.796875 290.859375 293.554688 290.859375 276.445312 C 290.859375 268.007812 288.867188 260.742188 284.882812 254.648438 C 280.898438 248.554688 275.390625 242.929688 268.359375 237.773438 C 264.375 234.492188 259.863281 232.792969 254.824219 232.675781 C 249.785156 232.558594 245.507812 234.492188 241.992188 238.476562 C 238.242188 242.226562 236.308594 246.855469 236.191406 252.363281 C 236.074219 257.871094 238.125 262.148438 242.34375 265.195312 C 245.859375 267.773438 248.671875 269.882812 250.78125 271.523438 C 252.890625 273.164062 253.945312 274.804688 253.945312 276.445312 C 253.945312 280.898438 250.078125 284.824219 242.34375 288.222656 C 234.609375 291.621094 225.820312 293.320312 215.976562 293.320312 C 210.820312 293.320312 206.484375 295.078125 202.96875 298.59375 C 199.453125 302.109375 197.695312 306.445312 197.695312 311.601562 C 197.695312 316.757812 199.453125 321.152344 202.96875 324.785156 C 206.484375 328.417969 210.820312 330.234375 215.976562 330.234375 Z M 123.515625 91.523438 C 123.515625 94.101562 121.699219 96.738281 118.066406 99.433594 C 114.433594 102.128906 106.40625 105.820312 93.984375 110.507812 C 74.53125 118.710938 61.464844 126.679688 54.785156 134.414062 C 48.105469 142.148438 44.765625 151.289062 44.765625 161.835938 C 44.765625 170.742188 46.875 177.890625 51.09375 183.28125 C 55.3125 188.671875 60.703125 193.242188 67.265625 196.992188 C 71.484375 199.804688 76.054688 200.859375 80.976562 200.15625 C 85.898438 199.453125 89.765625 196.992188 92.578125 192.773438 C 95.390625 188.554688 96.445312 183.984375 95.742188 179.0625 C 95.039062 174.140625 92.460938 170.273438 88.007812 167.460938 C 85.898438 166.523438 84.316406 165.644531 83.261719 164.824219 C 82.207031 164.003906 81.679688 163.007812 81.679688 161.835938 C 81.679688 159.960938 83.203125 157.792969 86.25 155.332031 C 89.296875 152.871094 97.265625 149.179688 110.15625 144.257812 C 130.546875 136.289062 144.023438 128.378906 150.585938 120.527344 C 157.148438 112.675781 160.429688 103.007812 160.429688 91.523438 C 160.429688 77.226562 155.273438 65.859375 144.960938 57.421875 C 134.648438 48.984375 120.703125 44.765625 103.125 44.765625 C 92.578125 44.765625 83.027344 46.699219 74.472656 50.566406 C 65.917969 54.433594 59.296875 59.53125 54.609375 65.859375 C 51.5625 70.078125 50.214844 74.589844 50.566406 79.394531 C 50.917969 84.199219 53.203125 88.242188 57.421875 91.523438 C 61.171875 94.335938 65.507812 95.625 70.429688 95.390625 C 75.351562 95.15625 79.453125 93.164062 82.734375 89.414062 C 85.078125 86.835938 87.832031 84.902344 90.996094 83.613281 C 94.160156 82.324219 98.085938 81.679688 102.773438 81.679688 C 109.804688 81.679688 115.019531 82.675781 118.417969 84.667969 C 121.816406 86.660156 123.515625 88.945312 123.515625 91.523438 Z M 123.515625 91.523438 " fill-opacity="1" fill-rule="nonzero"/></svg>