<svg xmlns="http://www.w3.org/2000/svg" xmlns:xlink="http://www.w3.org/1999/xlink" width="500" zoomAndPan="magnify" viewBox="0 0 375 374.999991" height="500" preserveAspectRatio="xMidYMid meet" version="1.0"><defs><clipPath id="9cf5152398"><path d="M 62 62 L 313 62 L 313 313 L 62 313 Z M 62 62 " clip-rule="nonzero"/></clipPath><clipPath id="45dca0533c"><path d="M 93.671875 49.039062 L 326.085938 281.453125 L 281.449219 326.085938 L 49.039062 93.675781 Z M 93.671875 49.039062 " clip-rule="nonzero"/></clipPath><clipPath id="1befd8b809"><path d="M 115.988281 71.355469 L 303.640625 259.007812 C 309.5625 264.929688 312.886719 272.957031 312.886719 281.328125 C 312.886719 289.699219 309.5625 297.726562 303.640625 303.644531 C 297.722656 309.5625 289.695312 312.886719 281.324219 312.886719 C 272.953125 312.886719 264.925781 309.5625 259.007812 303.644531 L 71.355469 115.992188 C 65.4375 110.074219 62.109375 102.046875 62.109375 93.675781 C 62.109375 85.304688 65.4375 77.277344 71.355469 71.355469 C 77.273438 65.4375 85.300781 62.113281 93.671875 62.113281 C 102.042969 62.113281 110.070312 65.4375 115.988281 71.355469 Z M 115.988281 71.355469 " clip-rule="nonzero"/></clipPath><clipPath id="8e87986326"><path d="M 0 0 L 250.960938 0 L 250.960938 250.960938 L 0 250.960938 Z M 0 0 " clip-rule="nonzero"/></clipPath><clipPath id="9d79abfb87"><path d="M 31.671875 -12.960938 L 264.085938 219.453125 L 219.449219 264.085938 L -12.960938 31.675781 Z M 31.671875 -12.960938 " clip-rule="nonzero"/></clipPath><clipPath id="e1a76e5f61"><path d="M 53.988281 9.355469 L 241.640625 197.007812 C 247.5625 202.929688 250.886719 210.957031 250.886719 219.328125 C 250.886719 227.699219 247.5625 235.726562 241.640625 241.644531 C 235.722656 247.5625 227.695312 250.886719 219.324219 250.886719 C 210.953125 250.886719 202.925781 247.5625 197.007812 241.644531 L 9.355469 53.992188 C 3.4375 48.074219 0.109375 40.046875 0.109375 31.675781 C 0.109375 23.304688 3.4375 15.277344 9.355469 9.355469 C 15.273438 3.4375 23.300781 0.113281 31.671875 0.113281 C 40.042969 0.113281 48.070312 3.4375 53.988281 9.355469 Z M 53.988281 9.355469 " clip-rule="nonzero"/></clipPath><clipPath id="06c45df06f"><rect x="0" width="251" y="0" height="251"/></clipPath><clipPath id="c2cbe47e87"><path d="M 62 62 L 313 62 L 313 313 L 62 313 Z M 62 62 " clip-rule="nonzero"/></clipPath><clipPath id="6b515f57b5"><path d="M 49.042969 281.324219 L 281.453125 48.910156 L 326.089844 93.546875 L 93.675781 325.960938 Z M 49.042969 281.324219 " clip-rule="nonzero"/></clipPath><clipPath id="baded99257"><path d="M 71.359375 259.007812 L 259.011719 71.355469 C 264.929688 65.4375 272.957031 62.109375 281.328125 62.109375 C 289.699219 62.109375 297.726562 65.4375 303.644531 71.355469 C 309.566406 77.273438 312.890625 85.300781 312.890625 93.671875 C 312.890625 102.042969 309.566406 110.070312 303.644531 115.988281 L 115.992188 303.640625 C 110.074219 309.5625 102.046875 312.886719 93.675781 312.886719 C 85.304688 312.886719 77.277344 309.5625 71.359375 303.640625 C 65.441406 297.722656 62.113281 289.695312 62.113281 281.324219 C 62.113281 272.953125 65.441406 264.925781 71.359375 259.007812 Z M 71.359375 259.007812 " clip-rule="nonzero"/></clipPath><clipPath id="6b3c8eb92c"><path d="M 0 0 L 250.960938 0 L 250.960938 250.960938 L 0 250.960938 Z M 0 0 " clip-rule="nonzero"/></clipPath><clipPath id="86bb4208ff"><path d="M -12.957031 219.324219 L 219.453125 -13.089844 L 264.089844 31.546875 L 31.675781 263.960938 Z M -12.957031 219.324219 " clip-rule="nonzero"/></clipPath><clipPath id="8185b749d5"><path d="M 9.359375 197.007812 L 197.011719 9.355469 C 202.929688 3.4375 210.957031 0.109375 219.328125 0.109375 C 227.699219 0.109375 235.726562 3.4375 241.644531 9.355469 C 247.566406 15.273438 250.890625 23.300781 250.890625 31.671875 C 250.890625 40.042969 247.566406 48.070312 241.644531 53.988281 L 53.992188 241.640625 C 48.074219 247.5625 40.046875 250.886719 31.675781 250.886719 C 23.304688 250.886719 15.277344 247.5625 9.359375 241.640625 C 3.441406 235.722656 0.113281 227.695312 0.113281 219.324219 C 0.113281 210.953125 3.441406 202.925781 9.359375 197.007812 Z M 9.359375 197.007812 " clip-rule="nonzero"/></clipPath><clipPath id="1e207c1248"><rect x="0" width="251" y="0" height="251"/></clipPath></defs><g clip-path="url(#9cf5152398)"><g clip-path="url(#45dca0533c)"><g clip-path="url(#1befd8b809)"><g transform="matrix(1, 0, 0, 1, 62, 62)"><g clip-path="url(#06c45df06f)"><g clip-path="url(#8e87986326)"><g clip-path="url(#9d79abfb87)"><g clip-path="url(#e1a76e5f61)"><path fill="#ffffff" d="M 31.671875 -12.960938 L 263.910156 219.277344 L 219.277344 263.914062 L -12.960938 31.675781 Z M 31.671875 -12.960938 " fill-opacity="1" fill-rule="nonzero"/></g></g></g></g></g></g></g></g><g clip-path="url(#c2cbe47e87)"><g clip-path="url(#6b515f57b5)"><g clip-path="url(#baded99257)"><g transform="matrix(1, 0, 0, 1, 62, 62)"><g clip-path="url(#1e207c1248)"><g clip-path="url(#6b3c8eb92c)"><g clip-path="url(#86bb4208ff)"><g clip-path="url(#8185b749d5)"><path fill="#ffffff" d="M -12.957031 219.324219 L 219.28125 -12.914062 L 263.914062 31.71875 L 31.675781 263.960938 Z M -12.957031 219.324219 " fill-opacity="1" fill-rule="nonzero"/></g></g></g></g></g></g></g></g></svg>