<svg xmlns="http://www.w3.org/2000/svg" xmlns:xlink="http://www.w3.org/1999/xlink" width="500" zoomAndPan="magnify" viewBox="0 0 375 374.999991" height="500" preserveAspectRatio="xMidYMid meet" version="1.0"><path fill="#ffffff" d="M 160.15625 351.953125 C 155.25 351.953125 151.082031 350.632812 147.652344 347.996094 C 144.226562 345.359375 142.273438 341.597656 141.796875 336.71875 L 135.9375 300 C 132.292969 298.957031 128.253906 297.136719 123.828125 294.53125 C 119.402344 291.925781 115.753906 289.453125 112.890625 287.109375 L 80.078125 302.34375 C 75.683594 304.425781 71.09375 304.769531 66.308594 303.367188 C 61.523438 301.964844 58.039062 299.019531 55.859375 294.53125 L 28.90625 246.09375 C 26.300781 242.449219 25.457031 238.28125 26.367188 233.59375 C 27.277344 228.90625 29.816406 225.128906 33.984375 222.265625 L 64.453125 199.21875 C 64.191406 197.90625 64.0625 196.019531 64.0625 193.554688 L 64.0625 181.835938 C 64.0625 179.632812 64.191406 177.613281 64.453125 175.78125 L 33.984375 153.515625 C 29.816406 150.390625 27.214844 146.550781 26.171875 141.992188 C 25.128906 137.433594 26.042969 133.074219 28.90625 128.90625 L 56.007812 80.003906 C 58.253906 76.40625 61.652344 73.761719 66.210938 72.070312 C 70.769531 70.378906 75.261719 70.441406 79.6875 72.265625 L 113.671875 87.890625 C 116.277344 86.066406 119.792969 83.855469 124.21875 81.25 C 128.644531 78.644531 132.550781 76.824219 135.9375 75.78125 L 141.796875 38.839844 C 142.316406 33.78125 144.285156 29.816406 147.699219 26.953125 C 151.117188 24.089844 155.269531 22.65625 160.15625 22.65625 L 214.84375 22.65625 C 219.75 22.65625 223.917969 24.078125 227.347656 26.921875 C 230.773438 29.765625 232.726562 33.683594 233.203125 38.671875 L 239.0625 75.390625 C 242.917969 76.445312 247.007812 78.273438 251.328125 80.871094 C 255.652344 83.46875 259.246094 85.808594 262.109375 87.890625 L 294.921875 72.265625 C 299.609375 70.441406 304.230469 70.378906 308.789062 72.070312 C 313.347656 73.761719 316.78125 76.410156 319.09375 80.015625 L 346.921875 128.96875 C 349.234375 133.09375 349.871094 137.5 348.828125 142.1875 C 347.785156 146.875 345.183594 150.652344 341.015625 153.515625 L 310.15625 174.609375 C 310.417969 176.691406 310.742188 178.90625 311.132812 181.25 C 311.523438 183.59375 311.71875 185.679688 311.71875 187.511719 C 311.71875 189.34375 311.523438 191.359375 311.132812 193.558594 C 310.742188 195.761719 310.417969 197.777344 310.15625 199.609375 L 341.40625 221.875 C 345.574219 224.480469 348.113281 228.125 349.023438 232.8125 C 349.933594 237.5 349.234375 241.875 346.925781 245.933594 L 319.140625 294.53125 C 316.960938 298.757812 313.609375 301.636719 309.082031 303.171875 C 304.558594 304.703125 299.96875 304.425781 295.3125 302.34375 L 262.109375 287.109375 C 259.246094 289.453125 255.535156 291.992188 250.976562 294.726562 C 246.417969 297.460938 242.578125 299.21875 239.453125 300 L 233.203125 336.71875 C 232.726562 341.597656 230.773438 345.359375 227.347656 347.996094 C 223.917969 350.632812 219.75 351.953125 214.84375 351.953125 Z M 187.109375 237.109375 C 200.910156 237.109375 212.628906 232.292969 222.265625 222.65625 C 231.902344 213.019531 236.71875 201.300781 236.71875 187.5 C 236.71875 173.957031 231.902344 162.304688 222.265625 152.539062 C 212.628906 142.773438 200.910156 137.890625 187.109375 137.890625 C 173.046875 137.890625 161.261719 142.773438 151.757812 152.539062 C 142.253906 162.304688 137.5 173.957031 137.5 187.5 C 137.5 201.300781 142.253906 213.019531 151.757812 222.65625 C 161.261719 232.292969 173.046875 237.109375 187.109375 237.109375 Z M 187.109375 237.109375 " fill-opacity="1" fill-rule="nonzero"/></svg>